<svg width="28" height="29" viewBox="0 0 28 29" fill="none" xmlns="http://www.w3.org/2000/svg">
<path d="M22.2979 7.31981C25.0058 8.58273 26.353 11.0323 26.4627 13.8234C26.5999 17.3123 22.8083 20.2985 18.9069 20.4935L14.8495 20.6963L14.1107 25.7672C14.0504 26.0908 13.8655 26.3875 13.5884 26.6058C13.3113 26.824 12.9594 26.9499 12.5941 26.9616L8.3806 27.1723C8.26366 27.1802 8.14675 27.1646 8.03855 27.1265C7.93034 27.0883 7.83361 27.0288 7.75551 26.9521C7.67742 26.8754 7.61996 26.7836 7.5874 26.6836C7.55483 26.5835 7.548 26.4777 7.5674 26.3739L7.80268 24.4046M10.9121 15.9991L14.8135 15.8041C18.7149 15.6091 22.479 11.9251 22.3418 8.43625C22.1772 4.24959 19.1024 1.60671 14.2647 1.84857L5.68165 2.27767C4.90138 2.31667 4.14854 3.05346 4.17598 3.75124L1.82319 23.445C1.85063 24.1428 2.65835 24.8016 3.43862 24.7626L7.80817 24.5441L9.40643 17.4727C9.52956 16.6276 9.97577 16.046 10.9121 15.9991Z" stroke="#3C5DCF" stroke-width="2.75" stroke-linecap="round" stroke-linejoin="round"/>
</svg>
