<svg width="44" height="44" viewBox="0 0 44 44" fill="none" xmlns="http://www.w3.org/2000/svg">
<g clip-path="url(#clip0_201_223)">
<path d="M32.084 13.2C35.2007 15.0333 36.6673 18.3333 36.6673 22C36.6673 26.5833 32.084 30.25 27.5007 30.25H22.734L21.634 36.85C21.5483 37.2703 21.3179 37.6473 20.9829 37.9153C20.6479 38.1833 20.2296 38.3253 19.8007 38.3167H14.8507C14.7132 38.3194 14.5768 38.2913 14.4517 38.2342C14.3266 38.1771 14.2159 38.0927 14.1279 37.987C14.0399 37.8814 13.9767 37.7573 13.9432 37.6239C13.9096 37.4906 13.9065 37.3514 13.934 37.2167L14.3007 34.65M18.334 23.8333H22.9173C27.5007 23.8333 32.084 19.25 32.084 14.6667C32.084 9.16667 28.6007 5.5 22.9173 5.5H12.834C11.9173 5.5 11.0007 6.41667 11.0007 7.33333L7.33398 33C7.33398 33.9167 8.25065 34.8333 9.16732 34.8333H14.3007L16.5007 25.6667C16.684 24.5667 17.234 23.8333 18.334 23.8333Z" stroke="#2DC289" stroke-width="2.75" stroke-linecap="round" stroke-linejoin="round"/>
</g>
<defs>
<clipPath id="clip0_201_223">
<rect width="44" height="44" fill="white"/>
</clipPath>
</defs>
</svg>
