<svg width="44" height="44" viewBox="0 0 44 44" fill="none" xmlns="http://www.w3.org/2000/svg">
<g clip-path="url(#clip0_201_227)">
<path d="M7.33398 14.6673C7.33398 12.7224 8.1066 10.8571 9.48187 9.48187C10.8571 8.1066 12.7224 7.33398 14.6673 7.33398H29.334C31.2789 7.33398 33.1442 8.1066 34.5194 9.48187C35.8947 10.8571 36.6673 12.7224 36.6673 14.6673V29.334C36.6673 31.2789 35.8947 33.1442 34.5194 34.5194C33.1442 35.8947 31.2789 36.6673 29.334 36.6673H14.6673C12.7224 36.6673 10.8571 35.8947 9.48187 34.5194C8.1066 33.1442 7.33398 31.2789 7.33398 29.334V14.6673Z" stroke="#2DC289" stroke-width="2.75" stroke-linecap="round" stroke-linejoin="round"/>
<path d="M16.5 22C16.5 23.4587 17.0795 24.8576 18.1109 25.8891C19.1424 26.9205 20.5413 27.5 22 27.5C23.4587 27.5 24.8576 26.9205 25.8891 25.8891C26.9205 24.8576 27.5 23.4587 27.5 22C27.5 20.5413 26.9205 19.1424 25.8891 18.1109C24.8576 17.0795 23.4587 16.5 22 16.5C20.5413 16.5 19.1424 17.0795 18.1109 18.1109C17.0795 19.1424 16.5 20.5413 16.5 22Z" stroke="#2DC289" stroke-width="2.75" stroke-linecap="round" stroke-linejoin="round"/>
<path d="M30.25 13.75V13.7683" stroke="#2DC289" stroke-width="2.75" stroke-linecap="round" stroke-linejoin="round"/>
</g>
<defs>
<clipPath id="clip0_201_227">
<rect width="44" height="44" fill="white"/>
</clipPath>
</defs>
</svg>
