<svg width="44" height="44" viewBox="0 0 44 44" fill="none" xmlns="http://www.w3.org/2000/svg">
<g clip-path="url(#clip0_201_218)">
<path d="M20.166 22C20.166 22.7223 20.3083 23.4375 20.5847 24.1048C20.8611 24.772 21.2662 25.3784 21.7769 25.8891C22.2876 26.3998 22.894 26.8049 23.5613 27.0813C24.2285 27.3577 24.9437 27.5 25.666 27.5C26.3883 27.5 27.1035 27.3577 27.7708 27.0813C28.4381 26.8049 29.0444 26.3998 29.5551 25.8891C30.0658 25.3784 30.471 24.772 30.7474 24.1048C31.0238 23.4375 31.166 22.7223 31.166 22C31.166 21.2777 31.0238 20.5625 30.7474 19.8952C30.471 19.228 30.0658 18.6216 29.5551 18.1109C29.0444 17.6002 28.4381 17.1951 27.7708 16.9187C27.1035 16.6423 26.3883 16.5 25.666 16.5C24.9437 16.5 24.2285 16.6423 23.5613 16.9187C22.894 17.1951 22.2876 17.6002 21.7769 18.1109C21.2662 18.6216 20.8611 19.228 20.5847 19.8952C20.3083 20.5625 20.166 21.2777 20.166 22Z" stroke="#2DC289" stroke-width="2.75" stroke-linecap="round" stroke-linejoin="round"/>
<path d="M22.0009 17.9025C21.2097 17.1941 20.2304 16.7299 19.1811 16.5659C18.1319 16.402 17.0576 16.5453 16.088 16.9786C15.1184 17.4119 14.295 18.1166 13.7173 19.0077C13.1395 19.8987 12.832 20.938 12.832 22C12.832 23.062 13.1395 24.1013 13.7173 24.9923C14.295 25.8834 15.1184 26.5881 16.088 27.0214C17.0576 27.4547 18.1319 27.598 19.1811 27.4341C20.2304 27.2701 21.2097 26.8059 22.0009 26.0975" stroke="#2DC289" stroke-width="2.75" stroke-linecap="round" stroke-linejoin="round"/>
<path d="M5.5 12.8327C5.5 11.8602 5.88631 10.9276 6.57394 10.24C7.26158 9.55232 8.19421 9.16602 9.16667 9.16602H34.8333C35.8058 9.16602 36.7384 9.55232 37.4261 10.24C38.1137 10.9276 38.5 11.8602 38.5 12.8327V31.166C38.5 32.1385 38.1137 33.0711 37.4261 33.7587C36.7384 34.4464 35.8058 34.8327 34.8333 34.8327H9.16667C8.19421 34.8327 7.26158 34.4464 6.57394 33.7587C5.88631 33.0711 5.5 32.1385 5.5 31.166V12.8327Z" stroke="#2DC289" stroke-width="2.75" stroke-linecap="round" stroke-linejoin="round"/>
</g>
<defs>
<clipPath id="clip0_201_218">
<rect width="44" height="44" fill="white"/>
</clipPath>
</defs>
</svg>
