<svg width="44" height="44" viewBox="0 0 44 44" fill="none" xmlns="http://www.w3.org/2000/svg">
<g clip-path="url(#clip0_19_2)">
<circle cx="22" cy="22" r="22" fill="black"/>
<path d="M22.0004 7.33301C25.4124 7.33333 28.7403 8.39139 31.5261 10.3615C34.3118 12.3316 36.4183 15.1169 37.5554 18.3337C38.6926 21.5506 38.8046 25.041 37.8759 28.3241C36.9472 31.6073 35.0235 34.5218 32.3697 36.6663H11.6311C8.9773 34.5218 7.05363 31.6073 6.12493 28.3241C5.19623 25.041 5.30817 21.5506 6.44534 18.3337C7.58252 15.1169 9.68899 12.3316 12.4747 10.3615C15.2604 8.39139 18.5884 7.33333 22.0004 7.33301Z" stroke="#2DC289" stroke-width="2.75" stroke-linecap="round" stroke-linejoin="round"/>
<path d="M36.6675 16.5H20.5341C20.2552 16.5004 19.98 16.5644 19.7295 16.6872C19.479 16.8099 19.2598 16.9883 19.0887 17.2086C18.9175 17.4289 18.7989 17.6853 18.7419 17.9584C18.6848 18.2315 18.6908 18.5139 18.7595 18.7843C19.689 22.451 21.6855 25.0507 24.7508 26.5833C28.4175 28.4167 32.6946 29.3333 37.5841 29.3333" stroke="#2DC289" stroke-width="2.75" stroke-linecap="round" stroke-linejoin="round"/>
</g>
<defs>
<clipPath id="clip0_19_2">
<rect width="44" height="44" fill="white"/>
</clipPath>
</defs>
</svg>
