<svg width="20" height="20" viewBox="0 0 25 25" fill="none" xmlns="http://www.w3.org/2000/svg">
<g clip-path="url(#clip0_105_24)">
<path d="M3.125 6.24935C3.125 5.69681 3.34449 5.16691 3.73519 4.77621C4.12589 4.38551 4.6558 4.16602 5.20833 4.16602H19.7917C20.3442 4.16602 20.8741 4.38551 21.2648 4.77621C21.6555 5.16691 21.875 5.69681 21.875 6.24935C21.875 6.80188 21.6555 7.33179 21.2648 7.72249C20.8741 8.11319 20.3442 8.33268 19.7917 8.33268H5.20833C4.6558 8.33268 4.12589 8.11319 3.73519 7.72249C3.34449 7.33179 3.125 6.80188 3.125 6.24935Z" stroke="white" stroke-width="2.75" stroke-linecap="round" stroke-linejoin="round"/>
<path d="M5.20898 8.33398V18.7507C5.20898 19.3032 5.42848 19.8331 5.81918 20.2238C6.20988 20.6145 6.73978 20.834 7.29232 20.834H17.709C18.2615 20.834 18.7914 20.6145 19.1821 20.2238C19.5728 19.8331 19.7923 19.3032 19.7923 18.7507V8.33398" stroke="white" stroke-width="2.75" stroke-linecap="round" stroke-linejoin="round"/>
<path d="M10.416 12.5H14.5827" stroke="white" stroke-width="2.75" stroke-linecap="round" stroke-linejoin="round"/>
</g>
<defs>
<clipPath id="clip0_105_24">
<rect width="25" height="25" fill="white"/>
</clipPath>
</defs>
</svg>
