<svg width="30" height="30" viewBox="0 0 30 30" fill="none" xmlns="http://www.w3.org/2000/svg">
<g clip-path="url(#clip0_208_105)">
<path d="M13.75 15C13.75 15.4925 13.847 15.9801 14.0355 16.4351C14.2239 16.89 14.5001 17.3034 14.8483 17.6517C15.1966 17.9999 15.61 18.2761 16.0649 18.4645C16.5199 18.653 17.0075 18.75 17.5 18.75C17.9925 18.75 18.4801 18.653 18.9351 18.4645C19.39 18.2761 19.8034 17.9999 20.1517 17.6517C20.4999 17.3034 20.7761 16.89 20.9645 16.4351C21.153 15.9801 21.25 15.4925 21.25 15C21.25 14.5075 21.153 14.0199 20.9645 13.5649C20.7761 13.11 20.4999 12.6966 20.1517 12.3483C19.8034 12.0001 19.39 11.7239 18.9351 11.5355C18.4801 11.347 17.9925 11.25 17.5 11.25C17.0075 11.25 16.5199 11.347 16.0649 11.5355C15.61 11.7239 15.1966 12.0001 14.8483 12.3483C14.5001 12.6966 14.2239 13.11 14.0355 13.5649C13.847 14.0199 13.75 14.5075 13.75 15Z" stroke="#2DC289" stroke-width="2.75" stroke-linecap="round" stroke-linejoin="round"/>
<path d="M14.9995 12.2063C14.4601 11.7232 13.7924 11.4067 13.077 11.295C12.3616 11.1832 11.6291 11.2809 10.968 11.5763C10.307 11.8718 9.74556 12.3523 9.35162 12.9598C8.95768 13.5673 8.74805 14.2759 8.74805 15C8.74805 15.7241 8.95768 16.4327 9.35162 17.0402C9.74556 17.6478 10.307 18.1282 10.968 18.4237C11.6291 18.7191 12.3616 18.8168 13.077 18.705C13.7924 18.5933 14.4601 18.2768 14.9995 17.7938" stroke="#2DC289" stroke-width="2.75" stroke-linecap="round" stroke-linejoin="round"/>
<path d="M3.75 8.75C3.75 8.08696 4.01339 7.45107 4.48223 6.98223C4.95107 6.51339 5.58696 6.25 6.25 6.25H23.75C24.413 6.25 25.0489 6.51339 25.5178 6.98223C25.9866 7.45107 26.25 8.08696 26.25 8.75V21.25C26.25 21.913 25.9866 22.5489 25.5178 23.0178C25.0489 23.4866 24.413 23.75 23.75 23.75H6.25C5.58696 23.75 4.95107 23.4866 4.48223 23.0178C4.01339 22.5489 3.75 21.913 3.75 21.25V8.75Z" stroke="#2DC289" stroke-width="2.75" stroke-linecap="round" stroke-linejoin="round"/>
</g>
<defs>
<clipPath id="clip0_208_105">
<rect width="30" height="30" fill="white"/>
</clipPath>
</defs>
</svg>
