<svg width="85" height="80" viewBox="0 0 85 80" fill="none" xmlns="http://www.w3.org/2000/svg">
<g clip-path="url(#clip0_14_97)">
<path d="M17.709 56.6667C17.709 58.4348 18.4553 60.1305 19.7836 61.3807C21.112 62.631 22.9137 63.3333 24.7923 63.3333C26.6709 63.3333 28.4726 62.631 29.801 61.3807C31.1294 60.1305 31.8757 58.4348 31.8757 56.6667C31.8757 54.8986 31.1294 53.2029 29.801 51.9526C28.4726 50.7024 26.6709 50 24.7923 50C22.9137 50 21.112 50.7024 19.7836 51.9526C18.4553 53.2029 17.709 54.8986 17.709 56.6667Z" stroke="#2DC289" stroke-width="2.75" stroke-linecap="round" stroke-linejoin="round"/>
<path d="M53.125 56.6667C53.125 58.4348 53.8713 60.1305 55.1997 61.3807C56.528 62.631 58.3297 63.3333 60.2083 63.3333C62.087 63.3333 63.8886 62.631 65.217 61.3807C66.5454 60.1305 67.2917 58.4348 67.2917 56.6667C67.2917 54.8986 66.5454 53.2029 65.217 51.9526C63.8886 50.7024 62.087 50 60.2083 50C58.3297 50 56.528 50.7024 55.1997 51.9526C53.8713 53.2029 53.125 54.8986 53.125 56.6667Z" stroke="#2DC289" stroke-width="2.75" stroke-linecap="round" stroke-linejoin="round"/>
<path d="M17.709 56.667H10.6257V43.3337M7.08398 16.667H46.0423V56.667M31.8757 56.667H53.1257M67.2923 56.667H74.3757V36.667M74.3757 36.667H46.0423M74.3757 36.667L63.7507 20.0003H46.0423" stroke="#2DC289" stroke-width="2.75" stroke-linecap="round" stroke-linejoin="round"/>
<path d="M10.625 30H24.7917" stroke="#2DC289" stroke-width="2.75" stroke-linecap="round" stroke-linejoin="round"/>
</g>
<defs>
<clipPath id="clip0_14_97">
<rect width="85" height="80" fill="white"/>
</clipPath>
</defs>
</svg>
