<svg width="27" height="27" viewBox="0 0 27 27" fill="none" xmlns="http://www.w3.org/2000/svg">
<path d="M22.9245 13.4005C22.918 12.1694 22.669 10.9516 22.1918 9.81673C21.7146 8.68184 21.0185 7.65205 20.1433 6.78616C19.2681 5.92027 18.2309 5.23524 17.091 4.77019C15.9511 4.30513 14.7307 4.06915 13.4996 4.07573C12.2685 4.0823 11.0507 4.3313 9.91581 4.80851C8.78091 5.28571 7.75112 5.98178 6.88524 6.85697C6.01935 7.73216 5.33432 8.76932 4.86926 9.90925C4.40421 11.0492 4.16823 12.2695 4.17481 13.5007C4.18138 14.7318 4.43038 15.9496 4.90759 17.0845C5.38479 18.2194 6.08086 19.2491 6.95605 20.115C7.83123 20.9809 8.8684 21.6659 10.0083 22.131C11.1483 22.5961 12.3686 22.832 13.5997 22.8255C14.8309 22.8189 16.0486 22.5699 17.1835 22.0927C18.3184 21.6155 19.3482 20.9194 20.2141 20.0442C21.08 19.169 21.765 18.1319 22.2301 16.9919C22.6951 15.852 22.9311 14.6316 22.9245 13.4005Z" stroke="white" stroke-width="2.75" stroke-linecap="round" stroke-linejoin="round"/>
<path d="M15.6562 17.6055L11.4451 9.29451" stroke="white" stroke-width="2.75" stroke-linecap="round" stroke-linejoin="round"/>
<path d="M15.6117 9.27225L11.4896 17.6277" stroke="white" stroke-width="2.75" stroke-linecap="round" stroke-linejoin="round"/>
</svg>
