<svg width="69" height="66" viewBox="0 0 69 66" fill="none" xmlns="http://www.w3.org/2000/svg">
<g clip-path="url(#clip0_14_112)">
<path d="M8 57.4536L12.7438 47.0036C9.11453 42.0758 7.49017 36.0504 8.1755 30.0584C8.86084 24.0663 11.8088 18.5195 16.466 14.4588C21.1233 10.3981 27.1698 8.10268 33.4707 8.00336C39.7717 7.90405 45.8939 10.0076 50.6885 13.9194C55.4832 17.8311 58.6205 23.282 59.5119 29.2492C60.4033 35.2164 58.9873 41.2897 55.5298 46.3292C52.0723 51.3688 46.8109 55.0281 40.733 56.6206C34.6551 58.2131 28.1785 57.6293 22.5188 54.9786L8 57.4536Z" stroke="#2DC289" stroke-width="2.75" stroke-linecap="round" stroke-linejoin="round"/>
<path d="M25 28.125C25 28.4897 25.1514 28.8394 25.421 29.0973C25.6906 29.3551 26.0563 29.5 26.4375 29.5C26.8187 29.5 27.1844 29.3551 27.454 29.0973C27.7236 28.8394 27.875 28.4897 27.875 28.125V25.375C27.875 25.0103 27.7236 24.6606 27.454 24.4027C27.1844 24.1449 26.8187 24 26.4375 24C26.0563 24 25.6906 24.1449 25.421 24.4027C25.1514 24.6606 25 25.0103 25 25.375V28.125ZM25 28.125C25 31.7717 26.5145 35.2691 29.2103 37.8477C31.9062 40.4263 35.5625 41.875 39.375 41.875M39.375 41.875H42.25C42.6312 41.875 42.9969 41.7301 43.2665 41.4723C43.5361 41.2144 43.6875 40.8647 43.6875 40.5C43.6875 40.1353 43.5361 39.7856 43.2665 39.5277C42.9969 39.2699 42.6312 39.125 42.25 39.125H39.375C38.9938 39.125 38.6281 39.2699 38.3585 39.5277C38.0889 39.7856 37.9375 40.1353 37.9375 40.5C37.9375 40.8647 38.0889 41.2144 38.3585 41.4723C38.6281 41.7301 38.9938 41.875 39.375 41.875Z" stroke="#2DC289" stroke-width="2.75" stroke-linecap="round" stroke-linejoin="round"/>
</g>
<defs>
<clipPath id="clip0_14_112">
<rect width="69" height="66" fill="white"/>
</clipPath>
</defs>
</svg>
